<?xml version="1.0" encoding="utf-8"?>
<!-- Generator: Adobe Illustrator 27.5.0, SVG Export Plug-In . SVG Version: 6.00 Build 0)  -->
<svg version="1.1" xmlns="http://www.w3.org/2000/svg" xmlns:xlink="http://www.w3.org/1999/xlink" x="0px" y="0px"
	 viewBox="0 0 1122 1122" style="enable-background:new 0 0 1122 1122;" xml:space="preserve">
<g id="BG">
	<rect style="fill:#FFFFFF;" width="1122" height="1122"/>
</g>
<g id="Alphabet_1_">
	<g>
		<linearGradient id="SVGID_1_" gradientUnits="userSpaceOnUse" x1="316.6553" y1="601.5211" x2="909.2428" y2="601.5211">
			<stop  offset="0" style="stop-color:#91C5C8"/>
			<stop  offset="1" style="stop-color:#787FAF"/>
		</linearGradient>
		<path style="fill:url(#SVGID_1_);" d="M702.281,278.044c43.235,0,82.517,7.974,117.837,23.898
			c35.304,15.936,65.021,37.847,89.125,65.719L801.664,459.84c-14.161-16.497-31.681-29.299-52.546-38.408
			c-20.881-9.094-44.108-13.655-69.713-13.655c-26.752,0-52.833,5.12-78.243,15.362c-25.424,10.242-48.489,24.045-69.178,41.395
			c-20.706,17.364-38.254,37.848-52.658,61.452c-14.407,23.618-23.967,48.796-28.682,75.535c-4.717,26.752-4.036,51.93,2.044,75.535
			c6.078,23.618,16.376,44.249,30.911,61.879c14.519,17.643,32.716,31.446,54.58,41.395c21.848,9.963,46.149,14.937,72.901,14.937
			c25.605,0,50.438-4.548,74.529-13.656c24.075-9.096,46.06-21.619,65.94-37.554l75.222,91.325
			c-33.936,27.885-71.38,49.796-112.301,65.719c-40.938,15.937-83.029,23.898-126.265,23.898c-44.382,0-84.699-8.534-120.95-25.604
			c-36.251-17.07-66.451-40.248-90.581-69.56c-24.146-29.299-41.278-63.586-51.425-102.847
			c-10.147-39.262-11.308-81.083-3.482-125.465c7.826-44.382,23.735-86.203,47.728-125.465
			c23.993-39.261,53.214-73.535,87.695-102.847c34.465-29.299,72.842-52.49,115.112-69.561
			C614.572,286.579,657.898,278.044,702.281,278.044z"/>
		<path style="fill:#5D75B6;" d="M620.943,196.706c43.235,0,82.517,7.975,117.837,23.898c35.304,15.936,65.02,37.847,89.125,65.719
			l-107.578,92.178c-14.161-16.497-31.681-29.299-52.546-38.408c-20.881-9.094-44.108-13.655-69.713-13.655
			c-26.752,0-52.833,5.12-78.244,15.362c-25.424,10.242-48.488,24.045-69.178,41.395c-20.706,17.364-38.254,37.848-52.658,61.452
			c-14.406,23.617-23.967,48.796-28.682,75.535c-4.717,26.752-4.036,51.931,2.044,75.535c6.078,23.618,16.376,44.249,30.911,61.879
			c14.519,17.643,32.716,31.446,54.58,41.395c21.848,9.963,46.149,14.938,72.901,14.938c25.605,0,50.438-4.549,74.529-13.656
			c24.075-9.096,46.06-21.619,65.94-37.554l75.222,91.325c-33.936,27.885-71.38,49.797-112.301,65.719
			c-40.938,15.937-83.03,23.898-126.265,23.898c-44.382,0-84.699-8.534-120.95-25.604c-36.251-17.07-66.451-40.248-90.581-69.561
			c-24.146-29.299-41.278-63.586-51.425-102.847c-10.147-39.262-11.308-81.083-3.482-125.465
			c7.826-44.382,23.735-86.203,47.728-125.465c23.993-39.261,53.213-73.534,87.694-102.847
			c34.465-29.299,72.842-52.49,115.112-69.561C533.234,205.241,576.561,196.706,620.943,196.706z"/>
		
			<linearGradient id="SVGID_00000112605299921022201740000012798944574611579813_" gradientUnits="userSpaceOnUse" x1="670.2116" y1="749.3776" x2="826.7713" y2="749.3776">
			<stop  offset="0" style="stop-color:#91C5C8"/>
			<stop  offset="1" style="stop-color:#9BBCE3"/>
		</linearGradient>
		<polygon style="fill:url(#SVGID_00000112605299921022201740000012798944574611579813_);" points="745.433,754.371 
			826.771,835.709 751.549,744.384 670.212,663.046 		"/>
		
			<linearGradient id="SVGID_00000027600942413153213230000007026644809934609332_" gradientUnits="userSpaceOnUse" x1="720.3266" y1="373.4099" x2="909.2428" y2="373.4099">
			<stop  offset="0" style="stop-color:#8AC8FA"/>
			<stop  offset="0.9949" style="stop-color:#D96569"/>
		</linearGradient>
		<polygon style="fill:url(#SVGID_00000027600942413153213230000007026644809934609332_);" points="720.327,378.83 801.664,460.168 
			909.243,367.99 827.905,286.652 		"/>
		<g>
			
				<linearGradient id="SVGID_00000134229192160480301780000018332740835479767215_" gradientUnits="userSpaceOnUse" x1="304.5785" y1="761.8439" x2="309.4272" y2="761.8439">
				<stop  offset="0" style="stop-color:#91C5C8"/>
				<stop  offset="1" style="stop-color:#9BBCE3"/>
			</linearGradient>
			<path style="fill:url(#SVGID_00000134229192160480301780000018332740835479767215_);" d="M304.81,759.416l-0.231-0.004
				l4.849,4.865C307.867,762.678,306.328,761.057,304.81,759.416z"/>
			
				<linearGradient id="SVGID_00000022544559593059633260000006488821917764994744_" gradientUnits="userSpaceOnUse" x1="310.2137" y1="834.8371" x2="826.7713" y2="834.8371">
				<stop  offset="0" style="stop-color:#91C5C8"/>
				<stop  offset="1" style="stop-color:#9BBCE3"/>
			</linearGradient>
			<path style="fill:url(#SVGID_00000022544559593059633260000006488821917764994744_);" d="M742.87,750.999l2.564,3.113
				c-33.936,27.885-71.38,49.797-112.301,65.719c-40.938,15.937-83.03,23.898-126.265,23.898c-44.382,0-84.699-8.534-120.95-25.604
				c-29.154-13.728-54.387-31.479-75.704-53.122l82.291,82.497h0.018c21.113,22.069,46.017,38.636,74.733,52.159
				c36.251,17.07,76.568,25.637,120.95,25.637c43.235,0,85.326-7.945,126.265-23.882c40.921-15.922,78.365-37.825,112.301-65.711
				l-75.222-91.32C748.703,746.662,745.802,748.857,742.87,750.999z"/>
		</g>
	</g>
</g>
</svg>
